<?xml version="1.0" encoding="utf-8"?>
<!-- Generator: Adobe Illustrator 19.1.1, SVG Export Plug-In . SVG Version: 6.00 Build 0)  -->
<svg version="1.1" id="Capa_1" xmlns="http://www.w3.org/2000/svg" xmlns:xlink="http://www.w3.org/1999/xlink" x="0px" y="0px"
	 viewBox="6 -6 512 512" style="enable-background:new 6 -6 512 512;" xml:space="preserve">
<style type="text/css">
	.st0{fill:#FFFFFF;}
</style>
<g>
	<path class="st0" d="M499.1,304.2L481.5,294c3-14.8,4.5-29.5,4.5-44c0-14.7-1.5-29.5-4.4-44l17.6-10.2c5.4-3.1,9.3-8.2,11-14.3
		c1.6-6.1,0.8-12.4-2.4-17.9l-48.1-83.3c-3.1-5.4-8.2-9.3-14.3-11c-6.1-1.6-12.4-0.8-17.9,2.4l-17.6,10.2
		c-22.2-19.6-48.4-34.7-76.2-44.1V17.5c0-13-10.6-23.5-23.5-23.5h-96.2c-13,0-23.5,10.6-23.5,23.5v20.2
		c-27.7,9.4-53.8,24.5-76.1,44.2L96.5,71.7c-5.4-3.1-11.8-4-17.9-2.4c-6.1,1.6-11.2,5.5-14.3,11l-48.1,83.3
		c-3.1,5.4-4,11.8-2.4,17.9c1.6,6.1,5.5,11.2,11,14.3L42.5,206c-3,14.8-4.5,29.5-4.5,44c0,14.7,1.5,29.5,4.4,44l-17.6,10.2
		c-11.2,6.5-15.1,20.9-8.6,32.2l48.1,83.3c6.5,11.2,20.9,15.1,32.2,8.6l17.6-10.2c22.2,19.6,48.4,34.7,76.3,44.1v20.2
		c0,13,10.6,23.5,23.5,23.5h96.2c13,0,23.5-10.6,23.5-23.5v-20.2c27.7-9.4,53.8-24.5,76.1-44.2l17.7,10.2
		c11.2,6.5,25.7,2.6,32.2-8.6l48.1-83.3C514.2,325.1,510.4,310.7,499.1,304.2z M494.7,328.8l-48.1,83.3c-2.3,4.1-7.6,5.5-11.6,3.1
		l-22.4-13c-2.9-1.6-6.4-1.2-8.9,1c-22.9,21.2-50.5,37.2-79.8,46.3c-3.1,1-5.3,3.9-5.3,7.2v25.7c0,4.7-3.8,8.5-8.5,8.5h-96.2
		c-4.7,0-8.5-3.8-8.5-8.5v-25.7c0-3.3-2.1-6.2-5.3-7.2c-29.5-9.1-57.1-25.1-79.9-46.2c-1.4-1.3-3.3-2-5.1-2c-1.3,0-2.6,0.3-3.8,1
		L89,415.3c-4.1,2.3-9.3,0.9-11.6-3.1l-48.1-83.3c-2.3-4.1-0.9-9.3,3.1-11.6l22.3-12.9c2.8-1.6,4.3-5,3.6-8.2
		c-3.4-15.2-5.2-30.8-5.2-46.2c0-15.1,1.8-30.6,5.3-46.1c0.7-3.2-0.7-6.5-3.6-8.2l-22.4-12.9c-2-1.1-3.4-3-4-5.2
		c-0.6-2.2-0.3-4.5,0.9-6.5l48.1-83.3c1.1-2,3-3.4,5.2-4c2.2-0.6,4.5-0.3,6.5,0.9l22.4,13c2.9,1.6,6.4,1.2,8.9-1
		c22.9-21.2,50.5-37.2,79.8-46.3c3.1-1,5.3-3.9,5.3-7.2V17.5c0-4.7,3.8-8.5,8.5-8.5h96.2c4.7,0,8.5,3.8,8.5,8.5v25.7
		c0,3.3,2.1,6.2,5.3,7.2c29.5,9.1,57.1,25.1,79.9,46.2c2.4,2.2,6,2.6,8.9,1L435,84.7c2-1.1,4.3-1.4,6.5-0.9c2.2,0.6,4,2,5.2,4
		l48.1,83.3c1.1,2,1.4,4.3,0.9,6.5c-0.6,2.2-2,4-4,5.2l-22.3,12.9c-2.8,1.6-4.3,5-3.6,8.2c3.4,15.2,5.2,30.8,5.2,46.2
		c0,15.1-1.8,30.6-5.3,46.1c-0.7,3.2,0.7,6.5,3.6,8.2l22.4,12.9C495.7,319.5,497.1,324.8,494.7,328.8z"/>
	<path class="st0" d="M262,98.2c-83.7,0-151.8,68.1-151.8,151.8S178.3,401.8,262,401.8S413.8,333.7,413.8,250S345.7,98.2,262,98.2z
		 M262,386.8c-75.4,0-136.8-61.4-136.8-136.8S186.6,113.2,262,113.2S398.8,174.6,398.8,250S337.4,386.8,262,386.8z"/>
	<path class="st0" d="M290.1,210.4H262c-4.2,0-7.5,3.4-7.5,7.5v64.1c0,4.2,3.4,7.5,7.5,7.5s7.5-3.4,7.5-7.5v-16.5h20.5
		c15.2,0,27.6-12.4,27.6-27.6S305.2,210.4,290.1,210.4z M290.1,250.5h-20.5v-25h20.5c6.9,0,12.5,5.6,12.5,12.5
		S297,250.5,290.1,250.5z"/>
	<path class="st0" d="M220.9,215.3c-1.1-2.9-3.9-4.9-7-4.9h-8c-3.1,0-5.9,1.9-7,4.9l-24,64.1c-1.5,3.9,0.5,8.2,4.4,9.7
		c3.9,1.5,8.2-0.5,9.7-4.4l4.2-11.2h33.7l4.2,11.2c1.1,3,4,4.9,7,4.9c0.9,0,1.8-0.2,2.6-0.5c3.9-1.5,5.9-5.8,4.4-9.7L220.9,215.3z
		 M198.7,258.5l11.2-29.9l11.2,29.9H198.7z"/>
	<path class="st0" d="M334.1,210.4c-4.2,0-7.5,3.4-7.5,7.5v64.1c0,4.2,3.4,7.5,7.5,7.5s7.5-3.4,7.5-7.5v-64.1
		C341.7,213.8,338.3,210.4,334.1,210.4z"/>
</g>
</svg>
