<?xml version="1.0" encoding="iso-8859-1"?>
<!-- Generator: Adobe Illustrator 19.0.0, SVG Export Plug-In . SVG Version: 6.00 Build 0)  -->
<svg xmlns="http://www.w3.org/2000/svg" xmlns:xlink="http://www.w3.org/1999/xlink" version="1.1" id="Layer_1" x="0px" y="0px" viewBox="0 0 290.626 290.626" style="enable-background:new 0 0 290.626 290.626;" xml:space="preserve" width="512px" height="512px">
<g>
	<g>
		<g>
			<path d="M276.563,51.563H187.5v-9.375C187.5,18.928,168.577,0,145.313,0c-23.264,0-42.188,18.928-42.188,42.188     c0,3.225,0.398,6.356,1.088,9.375h-90.15C6.309,51.563,0,57.872,0,65.625V243.75c0,7.753,6.309,14.063,14.063,14.063h89.063     v23.438H70.313v9.375h32.813H187.5h32.813v-9.375H187.5v-23.438h89.063c7.753,0,14.063-6.309,14.063-14.063V65.625     C290.625,57.872,284.316,51.563,276.563,51.563z M178.125,281.25H112.5v-23.438h65.625V281.25z M281.25,243.75     c0,2.583-2.1,4.688-4.687,4.688H187.5h-42.188h-42.188H14.063c-2.588,0-4.688-2.105-4.688-4.688V225h135.937h0.001H281.25V243.75     z M281.252,215.626H9.375v-150c0-2.584,2.1-4.688,4.688-4.688h93.516c6.919,13.866,21.211,23.438,37.734,23.438h14.063V75     h-14.063c-18.09,0-32.813-14.719-32.813-32.812s14.723-32.813,32.813-32.813c18.09,0,32.813,14.719,32.813,32.813v11.719     c0,3.877-3.155,7.031-7.031,7.031c-3.876,0-7.031-3.155-7.031-7.031V42.188c0-10.341-8.409-18.75-18.75-18.75     s-18.75,8.409-18.75,18.75s8.409,18.75,18.75,18.75c3.638,0,7.041-1.041,9.914-2.841c1.861,7.022,8.269,12.216,15.867,12.216     c6.52,0,12.117-3.853,14.761-9.375h90.708c2.587,0,4.688,2.105,4.688,4.688V215.626z M154.688,42.188     c0,5.17-4.205,9.375-9.375,9.375c-5.17,0-9.375-4.205-9.375-9.375s4.205-9.375,9.375-9.375     C150.483,32.813,154.688,37.017,154.688,42.188z" fill="#ff8000"/>
			<path d="M157.031,236.719c0-6.459-5.255-11.719-11.719-11.719s-11.719,5.259-11.719,11.719c0,6.46,5.255,11.719,11.719,11.719     C151.777,248.438,157.031,243.178,157.031,236.719z M145.313,239.063c-1.289,0-2.344-1.05-2.344-2.344s1.055-2.344,2.344-2.344     s2.344,1.05,2.344,2.344S146.602,239.063,145.313,239.063z" fill="#ff8000"/>
			<path d="M70.313,196.875h150V93.75h-150V196.875z M85.706,187.5l46.125-49.969l13.397,8.611l13.852-8.311l45.839,49.669H85.706z      M210.938,180.201l-43.655-47.292l43.655-26.194V180.201z M198.704,103.125l-53.302,31.983l-49.753-31.983H198.704z      M79.687,104.01l44.138,28.374l-44.138,47.817V104.01z" fill="#ff8000"/>
		</g>
	</g>
</g>
<g>
</g>
<g>
</g>
<g>
</g>
<g>
</g>
<g>
</g>
<g>
</g>
<g>
</g>
<g>
</g>
<g>
</g>
<g>
</g>
<g>
</g>
<g>
</g>
<g>
</g>
<g>
</g>
<g>
</g>
</svg>
