<?xml version="1.0" encoding="utf-8"?>
<!-- Generator: Adobe Illustrator 19.1.1, SVG Export Plug-In . SVG Version: 6.00 Build 0)  -->
<svg version="1.1" id="Capa_1" xmlns="http://www.w3.org/2000/svg" xmlns:xlink="http://www.w3.org/1999/xlink" x="0px" y="0px"
	 viewBox="6 -6 512 512" style="enable-background:new 6 -6 512 512;" xml:space="preserve">
<style type="text/css">
	.st0{fill:#FFFFFF;}
</style>
<g>
	<path class="st0" d="M508.3,400.9L314.7,207.7l58.2-58.2l17.8,17.8l22.8-22.8L280.4,11l-23,23l17.8,17.8L128.6,198.4l-17.8-17.8
		L87,204.4l133.3,133.3l23.8-23.8l-17.8-17.8l57.7-57.8l193.4,193.4L508.3,400.9z M297.4,20.7 M288.5,38.4L288.5,38.4 M386.2,136.2
		L386.2,136.2 M404,127.3 M141.9,211.6L288.5,65.4l71.1,70.9l-51.5,51.3l0,0l-22.2,22.1L213,282.4L141.9,211.6z"/>
	<path class="st0" d="M232.3,436.8h-196v37.7H11.2V531h251.3v-56.5h-30.2V436.8z M213.5,474.5 M213.5,455.6 M55.1,455.6 M55.1,474.5
		"/>
</g>
</svg>
