<?xml version="1.0" encoding="utf-8"?>
<!-- Generator: Adobe Illustrator 19.2.1, SVG Export Plug-In . SVG Version: 6.00 Build 0)  -->
<svg version="1.1" id="Laag_1" xmlns="http://www.w3.org/2000/svg" xmlns:xlink="http://www.w3.org/1999/xlink" x="0px" y="0px"
	 viewBox="0 0 2500 2340" style="enable-background:new 0 0 2500 2340;" xml:space="preserve">
<style type="text/css">
	.st0{fill:#FFFFFF;}
	.st1{clip-path:url(#SVGID_5_);}
	.st2{clip-path:url(#SVGID_6_);}
	.st3{clip-path:url(#SVGID_11_);}
	.st4{clip-path:url(#SVGID_12_);}
	.st5{clip-path:url(#SVGID_17_);}
	.st6{clip-path:url(#SVGID_18_);}
	.st7{clip-path:url(#SVGID_23_);}
	.st8{clip-path:url(#SVGID_24_);}
	.st9{clip-path:url(#SVGID_29_);}
	.st10{clip-path:url(#SVGID_30_);}
	.st11{clip-path:url(#SVGID_35_);}
	.st12{clip-path:url(#SVGID_36_);}
	.st13{fill:#ECB73A;stroke:#ECB73A;stroke-width:0.109;stroke-miterlimit:2.613;}
</style>
<path class="st0" d="M216.4,56.3H2500v2283.6H216.4V56.3z"/>
<g>
	<defs>
		<polyline id="SVGID_1_" points="254.1,1146.3 254.1,390.9 1475.6,390.9 1475.6,1146.3 254.1,1146.3 		"/>
	</defs>
	<clipPath id="SVGID_2_">
		<use xlink:href="#SVGID_1_"  style="overflow:visible;"/>
	</clipPath>
</g>
<g>
	<defs>
		<polyline id="SVGID_3_" points="254.1,1146.3 254.1,390.9 1475.6,390.9 1475.6,1146.3 254.1,1146.3 		"/>
	</defs>
	<defs>
		<path id="SVGID_4_" d="M415.3,1146.3h46.5l1013.8-483.3c-25.7-83.5-120.2-149.4-212.9-178.6c-294.9-93.4-864.8,72.2-971.1,422.8
			C254.1,1030.4,319.7,1116.2,415.3,1146.3z"/>
	</defs>
	<clipPath id="SVGID_5_">
		<use xlink:href="#SVGID_3_"  style="overflow:visible;"/>
	</clipPath>
	<clipPath id="SVGID_6_" class="st1">
		<use xlink:href="#SVGID_4_"  style="overflow:visible;"/>
	</clipPath>
	<g class="st2">
		
			<image style="overflow:visible;enable-background:new    ;" width="35" height="21" xlink:href="B1FA0536.jpeg"  transform="matrix(34.9112 0 0 -35.9811 254.0979 1146.4952)">
		</image>
	</g>
</g>
<g>
	<defs>
		<polyline id="SVGID_7_" points="1196.6,2042.1 0,1464.9 468.5,485.9 1665.1,1063 1196.6,2042.1 		"/>
	</defs>
	<clipPath id="SVGID_8_">
		<use xlink:href="#SVGID_7_"  style="overflow:visible;"/>
	</clipPath>
</g>
<g>
	<defs>
		<polyline id="SVGID_9_" points="1196.6,2042.1 0,1464.9 468.5,485.9 1665.1,1063 1196.6,2042.1 		"/>
	</defs>
	<defs>
		<path id="SVGID_10_" d="M250,1270.6c0.2-166.2,148.8-275.2,230.1-328.2l935,215.6c-42.7,111.9-192.6,240.2-350.5,306.7
			c-208,87.5-456.1,120.9-661.5,25.9C324.7,1454.5,250,1361.1,250,1270.6L250,1270.6z"/>
	</defs>
	<clipPath id="SVGID_11_">
		<use xlink:href="#SVGID_9_"  style="overflow:visible;"/>
	</clipPath>
	<clipPath id="SVGID_12_" class="st3">
		<use xlink:href="#SVGID_10_"  style="overflow:visible;"/>
	</clipPath>
	<g class="st4">
		
			<image style="overflow:visible;enable-background:new    ;" width="32" height="23" xlink:href="B1FA053A.jpeg"  transform="matrix(14.6455 -30.6036 -52.0398 -25.0994 1196.9188 2042.2355)">
		</image>
	</g>
</g>
<g>
	<g>
		<defs>
			<polyline id="SVGID_13_" points="2034.8,521 1942.3,1467.4 901.8,1364.9 994.3,418.5 2034.8,521 			"/>
		</defs>
		<clipPath id="SVGID_14_">
			<use xlink:href="#SVGID_13_"  style="overflow:visible;"/>
		</clipPath>
	</g>
	<g>
		<defs>
			<polyline id="SVGID_15_" points="2034.8,521 1942.3,1467.4 901.8,1364.9 994.3,418.5 2034.8,521 			"/>
		</defs>
		<defs>
			<path id="SVGID_16_" d="M1100.3,619.4c220.4-85.8,549.4-106.5,699.8,51.9c151.4,159.8,26.1,372.8-122.8,482.7
				c-199,147.2-440.7,219.3-692.2,193.7L1100.3,619.4L1100.3,619.4z"/>
		</defs>
		<clipPath id="SVGID_17_">
			<use xlink:href="#SVGID_15_"  style="overflow:visible;"/>
		</clipPath>
		<clipPath id="SVGID_18_" class="st5">
			<use xlink:href="#SVGID_16_"  style="overflow:visible;"/>
		</clipPath>
		<g class="st6">
			
				<image style="overflow:visible;enable-background:new    ;" width="33" height="28" xlink:href="B1FA053A.jpeg"  transform="matrix(-31.5395 -3.1075 -3.3054 33.8082 2034.8094 520.7637)">
			</image>
		</g>
	</g>
</g>
<g>
	<g>
		<defs>
			<polyline id="SVGID_19_" points="756.8,1740.7 34.7,1392.4 367,698 1089.1,1046.3 756.8,1740.7 			"/>
		</defs>
		<clipPath id="SVGID_20_">
			<use xlink:href="#SVGID_19_"  style="overflow:visible;"/>
		</clipPath>
	</g>
	<g>
		<defs>
			<polyline id="SVGID_21_" points="756.8,1740.7 34.7,1392.4 367,698 1089.1,1046.3 756.8,1740.7 			"/>
		</defs>
		<defs>
			<path id="SVGID_22_" d="M415.8,1496.2l457.9-463L480,942.4c-81.4,52.8-230.1,161.8-229.9,328.3c0,90.6,74.6,183.7,152.8,219.8
				C403.7,1490.9,415.2,1495.9,415.8,1496.2L415.8,1496.2z"/>
		</defs>
		<clipPath id="SVGID_23_">
			<use xlink:href="#SVGID_21_"  style="overflow:visible;"/>
		</clipPath>
		<clipPath id="SVGID_24_" class="st7">
			<use xlink:href="#SVGID_22_"  style="overflow:visible;"/>
		</clipPath>
		<g class="st8">
			
				<image style="overflow:visible;enable-background:new    ;" width="23" height="27" xlink:href="B1FA053E.jpeg"  transform="matrix(14.4524 -30.1996 -26.7509 -12.9027 756.9981 1740.749)">
			</image>
		</g>
	</g>
</g>
<g>
	<g>
		<defs>
			<polyline id="SVGID_25_" points="1921.8,836.8 1860.9,1459.4 932.7,1367.9 993.6,745.3 1921.8,836.8 			"/>
		</defs>
		<clipPath id="SVGID_26_">
			<use xlink:href="#SVGID_25_"  style="overflow:visible;"/>
		</clipPath>
	</g>
	<g>
		<defs>
			<polyline id="SVGID_27_" points="1921.8,836.8 1860.9,1459.4 932.7,1367.9 993.6,745.3 1921.8,836.8 			"/>
		</defs>
		<defs>
			<path id="SVGID_28_" d="M1868.6,834.9l-33.8-3.3l-786.6,117.1l-63,398.9c251.3,25.5,493-46.5,692.1-193.6
				C1778.8,1078.9,1869.3,956.1,1868.6,834.9z"/>
		</defs>
		<clipPath id="SVGID_29_">
			<use xlink:href="#SVGID_27_"  style="overflow:visible;"/>
		</clipPath>
		<clipPath id="SVGID_30_" class="st9">
			<use xlink:href="#SVGID_28_"  style="overflow:visible;"/>
		</clipPath>
		<g class="st10">
			
				<image style="overflow:visible;enable-background:new    ;" width="26" height="24" xlink:href="B1FA053E.jpeg"  transform="matrix(-35.7097 -3.5186 -2.5377 25.95 1921.7756 836.5854)">
			</image>
		</g>
	</g>
</g>
<g>
	<g>
		<defs>
			<polyline id="SVGID_31_" points="314.5,575.6 1203.1,0.1 1709.5,788.1 820.9,1363.6 314.5,575.6 			"/>
		</defs>
		<clipPath id="SVGID_32_">
			<use xlink:href="#SVGID_31_"  style="overflow:visible;"/>
		</clipPath>
	</g>
	<g>
		<defs>
			<polyline id="SVGID_33_" points="314.5,575.6 1203.1,0.1 1709.5,788.1 820.9,1363.6 314.5,575.6 			"/>
		</defs>
		<defs>
			<path id="SVGID_34_" d="M895.5,939.5l580.1-276.7c-25.7-83.3-120.2-149.3-212.8-178.5C1072.9,424.2,769,471.4,548.4,606
				L895.5,939.5L895.5,939.5z"/>
		</defs>
		<clipPath id="SVGID_35_">
			<use xlink:href="#SVGID_33_"  style="overflow:visible;"/>
		</clipPath>
		<clipPath id="SVGID_36_" class="st11">
			<use xlink:href="#SVGID_34_"  style="overflow:visible;"/>
		</clipPath>
		<g class="st12">
			
				<image style="overflow:visible;enable-background:new    ;" width="36" height="31" xlink:href="B1FA053A.jpeg"  transform="matrix(14.0697 21.8947 28.6713 -18.5704 314.2934 575.7938)">
			</image>
		</g>
	</g>
</g>
<path class="st13" d="M1865.6,809.9c-18.5-67.6-129.5-93.7-247.9-58.2c-55.8,16.7-97.7,52.6-130.4,84L1062.9,860L851.8,723.2
	c25.6-30.7,45.6-69.5,37.4-99.6c-18.5-67.6-129.5-93.7-248-58.3c-119.4,35.8-200.5,114.9-180.9,186.6c15.2,55.6,104.4,71.7,197.6,60
	l99.5,194.1l-154.6,237.8c-14.1,2.5-45.4,5.9-59.8,10.2c-118.4,35.4-199.4,118.9-181,186.5c18.1,66,132,92.9,248,58.2
	c118.4-35.4,199.4-118.9,180.9-186.5c-2.3-8.3-11.6-16-16.5-23l254.7-221.3l435.7-99.2c42,39.5,125.7,55.9,219.9,27.8
	C1807.2,959.8,1884.5,878.7,1865.6,809.9L1865.6,809.9z"/>
</svg>
