<?xml version="1.0" encoding="UTF-8"?>
<!DOCTYPE svg PUBLIC "-//W3C//DTD SVG 1.1//EN" "http://www.w3.org/Graphics/SVG/1.1/DTD/svg11.dtd">
<!-- Creator: CorelDRAW X7 -->
<svg xmlns="http://www.w3.org/2000/svg" xml:space="preserve" width="600px" height="600px" version="1.1" style="shape-rendering:geometricPrecision; text-rendering:geometricPrecision; image-rendering:optimizeQuality; fill-rule:evenodd; clip-rule:evenodd"
viewBox="0 0 600 600"
 xmlns:xlink="http://www.w3.org/1999/xlink">
 <defs>
  <style type="text/css">
   <![CDATA[
    .fil0 {fill:#FAC411}
   ]]>
  </style>
 </defs>
 <g id="Laag_x0020_1">
  <metadata id="CorelCorpID_0Corel-Layer"/>
  <path class="fil0" d="M575 177c-34,-36 -94,-47 -153,-43 -13,-11 -29,-19 -46,-25 -110,-34 -327,27 -361,157 -6,24 -1,44 9,60 -14,20 -24,45 -24,72 0,33 27,68 56,81 77,35 169,23 246,-9 25,-11 51,-29 72,-48l0 0c56,-10 109,-33 155,-67 55,-41 102,-120 46,-178zm-194 -49c25,9 51,31 65,51 0,0 -7,-29 -19,-40l6 0c51,0 85,13 115,43 8,8 13,18 17,27 -17,-7 -41,-7 -67,0 -19,6 -34,18 -46,29l-149 10 -74 -48c9,-11 15,-25 13,-35 -4,-14 -18,-23 -38,-25 63,-21 129,-27 177,-12zm-358 255c0,-46 35,-84 61,-106 -30,15 -56,44 -56,44 -5,-12 -7,-22 -3,-35 10,-37 34,-67 66,-91 -2,5 -2,10 0,15 5,19 35,29 68,25l37 64 -1 0 -56 83c-5,1 -14,3 -19,4 -39,12 -66,37 -65,60 -18,-16 -32,-40 -32,-63zm480 -33c-67,49 -145,72 -229,70 0,0 26,11 75,6l19 -3c-16,11 -33,19 -48,25 -61,27 -128,40 -193,27 6,0 11,-2 16,-3 42,-13 71,-42 64,-66 0,-2 -2,-6 -3,-7l87 -78 153 -35c15,14 45,19 78,10 16,-5 30,-13 41,-21 -10,27 -31,53 -60,75z"/>
 </g>
</svg>
