<?xml version="1.0" encoding="utf-8"?>
<!-- Generator: Adobe Illustrator 19.1.1, SVG Export Plug-In . SVG Version: 6.00 Build 0)  -->
<svg version="1.1" id="Layer_1" xmlns="http://www.w3.org/2000/svg" xmlns:xlink="http://www.w3.org/1999/xlink" x="0px" y="0px"
	 viewBox="6 -6 512 512" style="enable-background:new 6 -6 512 512;" xml:space="preserve">
<style type="text/css">
	.st0{fill:#FFFFFF;}
	.st1{fill:#0A212F;}
	.st2{fill:#304B56;}
</style>
<polygon class="st0" points="69.2,502 69.2,-2 343.2,-2 447.9,102.7 447.9,502 "/>
<path class="st1" d="M341.5,2l102.3,102.3V498H73.2V2H341.5 M344.9-6H65.2v512h386.6V101L344.9-6L344.9-6z"/>
<polygon class="st2" points="451.9,101 344.8,101 344.8,-6 "/>
<polygon class="st1" points="413.5,416.9 28,416.9 28,287 496,287 "/>
<polygon class="st2" points="65.2,454.1 65.2,416.9 28,416.9 "/>
<g>
	<path class="st0" d="M151,389.5v-74.7H181h3.7c10.1,0,16.9,1.8,20.4,5.3c3.5,3.5,5.3,10.3,5.3,20.4c0,10-1.7,16.6-5,19.9
		c-3.3,3.3-10.1,4.9-20.3,4.9l-3.3,0h-16.7v24.1H151z M165.1,353.4h16.1c6.4,0,10.5-0.8,12.2-2.2c1.7-1.5,2.6-5,2.6-10.5
		c0-6.3-0.7-10.2-2.2-11.7c-1.4-1.5-5.2-2.3-11.2-2.3h-17.6L165.1,353.4L165.1,353.4z"/>
	<path class="st0" d="M219.5,389.5v-74.7h36.7c10.4,0,17.7,2.3,21.9,6.8s6.3,12.5,6.3,24c0,18.6-1.7,30.6-5,35.9
		c-3.4,5.3-10.9,8-22.7,8L219.5,389.5L219.5,389.5z M233.7,377.5h20.2c6.8,0,11.2-1.6,13.2-4.7c2-3.1,3-10,3-20.7
		c0-11-0.9-18-2.7-21c-1.8-3-6-4.5-12.6-4.5h-21.1L233.7,377.5L233.7,377.5z"/>
	<path class="st0" d="M308.9,326.7v20.1h33.5v11.9h-33.5v30.7h-14.2v-74.7h49.4v11.9H308.9z"/>
</g>
</svg>
